<?xml version="1.0" encoding="UTF-8"?>
<svg version="1.1" xmlns="http://www.w3.org/2000/svg" width="502" height="497">
<path d="M0 0 C0 17.16 0 34.32 0 52 C15.51 52 31.02 52 47 52 C47 70.48 47 88.96 47 108 C31.49 108 15.98 108 0 108 C0 131.43 0 154.86 0 179 C-16.7990625 179.0309375 -16.7990625 179.0309375 -33.9375 179.0625 C-37.47847412 179.071604 -41.01944824 179.08070801 -44.66772461 179.09008789 C-48.97961426 179.09460449 -48.97961426 179.09460449 -50.99586487 179.09544373 C-52.40915745 179.09698297 -53.8224487 179.10050751 -55.23573303 179.10557556 C-57.37194107 179.11285548 -59.5080686 179.11390734 -61.64428711 179.11352539 C-62.85007919 179.115746 -64.05587128 179.11796661 -65.29820251 179.12025452 C-68 179 -68 179 -69 178 C-69.09304018 176.52645652 -69.11746265 175.04849409 -69.11352539 173.57202148 C-69.11340454 172.61791382 -69.11328369 171.66380615 -69.11315918 170.68078613 C-69.10804321 169.67108765 -69.10292725 168.66138916 -69.09765625 167.62109375 C-69.09664917 166.69816528 -69.09564209 165.77523682 -69.09460449 164.82434082 C-69.08935494 161.36204799 -69.07539381 157.8997728 -69.0625 154.4375 C-69.041875 146.703125 -69.02125 138.96875 -69 131 C-96.39 131 -123.78 131 -152 131 C-152 146.84 -152 162.68 -152 179 C-161.3740625 179.0309375 -161.3740625 179.0309375 -170.9375 179.0625 C-172.91226318 179.071604 -174.88702637 179.08070801 -176.92163086 179.09008789 C-178.47770113 179.09300705 -180.03377216 179.09555561 -181.58984375 179.09765625 C-182.40521606 179.10277222 -183.22058838 179.10788818 -184.06066895 179.11315918 C-186.04080523 179.1134694 -188.02084654 179.06238096 -190 179 C-190.33 178.67 -190.66 178.34 -191 178 C-190.19621192 152.35886373 -182.84773706 126.65530876 -171 104 C-170.6798291 103.37786621 -170.3596582 102.75573242 -170.02978516 102.11474609 C-165.67170017 93.71663839 -160.70448832 85.77297604 -155.3125 78 C-154.51078369 76.80540161 -154.51078369 76.80540161 -153.69287109 75.58666992 C-152.22550227 73.53212678 -150.86634959 71.70080038 -149 70 C-145.60546875 69.5 -145.60546875 69.5 -143 70 C-143 70.66 -143 71.32 -143 72 C-141.96875 72.12375 -140.9375 72.2475 -139.875 72.375 C-136 73 -136 73 -133.5234375 74.0078125 C-118.47660351 78.24494757 -99.88129203 76.04370732 -86 69 C-82.57375463 67.05508622 -79.35323051 64.88697929 -76.1875 62.5390625 C-74 61 -74 61 -72 61 C-72 60.34 -72 59.68 -72 59 C-70.5805149 57.85089302 -69.15954792 56.70355951 -67.73046875 55.56640625 C-64.18447598 52.35660241 -61.14000185 48.2800037 -59 44 C-58.34 44 -57.68 44 -57 44 C-56.88527344 43.45988281 -56.77054688 42.91976562 -56.65234375 42.36328125 C-55.5795337 38.47675382 -53.85472248 34.86179247 -52.25390625 31.16796875 C-49.82463936 25.03047513 -48.60214876 19.07703766 -47.875 12.5625 C-47.74544922 11.46518555 -47.74544922 11.46518555 -47.61328125 10.34570312 C-47.40371607 8.56439906 -47.20112132 6.78227719 -47 5 C-45.23044256 4.53676507 -43.45925488 4.07975792 -41.6875 3.625 C-40.70136719 3.36976562 -39.71523437 3.11453125 -38.69921875 2.8515625 C-24.73071561 -0.36399577 -15.32845125 0 0 0 Z " fill="#0998D7" transform="translate(253,56)"/>
<path d="M0 0 C18.48 0 36.96 0 56 0 C56 15.51 56 31.02 56 47 C78.77 47 101.54 47 125 47 C125 70.1 125 93.2 125 117 C109.82 117.33 94.64 117.66 79 118 C78.67 145.06 78.34 172.12 78 200 C93.84 200 109.68 200 126 200 C125.67 212.54 125.34 225.08 125 238 C117.11547966 238 110.5315459 237.91048637 103 236.375 C102.10555176 236.19678711 101.21110352 236.01857422 100.28955078 235.83496094 C69.37539839 229.42096618 42.10047809 216.03946112 17 197 C17.79275977 191.5167449 19.35983565 186.47697815 21.0625 181.21875 C25.21201154 166.97209371 23.27205272 151.86594125 17.8046875 138.27734375 C17 136 17 136 17 133 C16.34 133 15.68 133 15 133 C13.6328125 130.98828125 13.6328125 130.98828125 12.125 128.3125 C9.9845894 124.60350418 7.70270144 121.32640177 5 118 C5 117.34 5 116.68 5 116 C4.01 115.67 3.02 115.34 2 115 C2 114.34 2 113.68 2 113 C1.47148438 112.75121094 0.94296875 112.50242187 0.3984375 112.24609375 C-3.78530863 110.07245366 -7.71758565 107.47434622 -11.7109375 104.97265625 C-17.48761563 101.50802151 -22.72388501 99.3374102 -29.25 97.875 C-29.99564209 97.70323242 -30.74128418 97.53146484 -31.50952148 97.35449219 C-36.99726911 96.12904394 -42.38179888 95.35671118 -48 95 C-48.74323599 91.09553359 -49.47919623 87.19006532 -50.19921875 83.28125 C-50.65075495 80.83449157 -51.12696136 78.4028969 -51.64453125 75.96875 C-53.63558563 65.99915398 -53 57.76513218 -53 47 C-35.51 47 -18.02 47 0 47 C0 31.49 0 15.98 0 0 Z " fill="#FA8918" transform="translate(115,200)"/>
<path d="M0 0 C22.77 0 45.54 0 69 0 C69 15.84 69 31.68 69 48 C110.085 47.505 110.085 47.505 152 47 C152 31.49 152 15.98 152 0 C164.87 0 177.74 0 191 0 C191.97095746 3.88382985 191.94466996 5.63669965 191.328125 9.47265625 C191.15796875 10.53806641 190.9878125 11.60347656 190.8125 12.70117188 C190.626875 13.81041016 190.44125 14.91964844 190.25 16.0625 C190.07984375 17.14466797 189.9096875 18.22683594 189.734375 19.34179688 C188.06987119 29.5430022 185.36603138 39.28192349 182.0625 49.0625 C181.79945068 49.84197998 181.53640137 50.62145996 181.26538086 51.42456055 C177.70904266 61.87559548 173.42064131 71.35696442 168 81 C167.12794922 82.55654297 167.12794922 82.55654297 166.23828125 84.14453125 C158.60328065 97.51007163 158.60328065 97.51007163 154 103 C153.34 103 152.68 103 152 103 C151.7525 103.804375 151.505 104.60875 151.25 105.4375 C150 108 150 108 148.25 109 C144.99150791 109 142.87835741 107.49453173 140 106 C131.07937032 103.36768305 122.27158025 102.71116572 113 103 C112.25492188 103.00515625 111.50984375 103.0103125 110.7421875 103.015625 C102.66753266 103.39882896 95.32965631 106.49639831 87.85595703 109.3515625 C85.92421154 110.02647911 83.99125358 110.53289543 82 111 C82 111.66 82 112.32 82 113 C80.3203125 114.2890625 80.3203125 114.2890625 78.125 115.625 C77.40570313 116.07101562 76.68640625 116.51703125 75.9453125 116.9765625 C74 118 74 118 72 118 C72 118.66 72 119.32 72 120 C70.55390488 121.17666255 69.10667035 122.35196114 67.65283203 123.51904297 C64.88386947 126.00006614 62.95147891 128.9593447 60.9375 132.0625 C60.29071289 133.04887451 60.29071289 133.04887451 59.63085938 134.05517578 C52.25677389 145.58764306 48.92099574 156.9027424 48.5390625 170.49609375 C48.27222656 171.73552734 48.27222656 171.73552734 48 173 C45.33389633 174.66580894 42.85464398 175.34856617 39.76953125 175.81640625 C38.56393555 176.00299805 38.56393555 176.00299805 37.33398438 176.19335938 C36.50189453 176.31517578 35.66980469 176.43699219 34.8125 176.5625 C33.99974609 176.68818359 33.18699219 176.81386719 32.34960938 176.94335938 C29.9021539 177.315248 27.45218196 177.66082063 25 178 C24.32114746 178.10296387 23.64229492 178.20592773 22.94287109 178.31201172 C15.19164849 179.35937473 8.03280922 179 0 179 C0 161.51 0 144.02 0 126 C-15.51 126 -31.02 126 -47 126 C-47 107.52 -47 89.04 -47 70 C-31.49 70 -15.98 70 0 70 C0 46.9 0 23.8 0 0 Z " fill="#9DBD14" transform="translate(254,260)"/>
<path d="M0 0 C13.51212553 0 13.51212553 0 18.875 1.171875 C20.04546875 1.42453125 21.2159375 1.6771875 22.421875 1.9375 C23.60265625 2.205625 24.7834375 2.47375 26 2.75 C27.18078125 3.00265625 28.3615625 3.2553125 29.578125 3.515625 C44.36094573 6.77175291 58.03322135 12.07115936 71.6875 18.5 C72.49582275 18.87987061 73.30414551 19.25974121 74.13696289 19.65112305 C78.88614414 21.91121969 83.46796426 24.33052781 88 27 C88 27.66 88 28.32 88 29 C88.5775 29.12375 89.155 29.2475 89.75 29.375 C92.02335767 30.00648824 93.9253529 30.88858191 96 32 C96 32.66 96 33.32 96 34 C97.65 34.66 99.3 35.32 101 36 C101 36.66 101 37.32 101 38 C101.763125 38.28875 102.52625 38.5775 103.3125 38.875 C106 40 106 40 109 42 C108.32425084 45.05132094 107.27228403 47.74890968 106.0625 50.625 C99.6351077 68.28267116 101.44378404 87.19843886 109.06445312 104.15917969 C111.06675822 108.09899712 113.68963748 111.52535583 116.4609375 114.9609375 C118 117 118 117 118 119 C118.66 119 119.32 119 120 119 C120.556875 119.70125 121.11375 120.4025 121.6875 121.125 C134.3135647 136.82226963 153.96348216 141.48823723 173 144 C174.9786508 151.03052517 176.47990339 158.11440599 177.6875 165.3125 C177.81874268 166.04509033 177.94998535 166.77768066 178.08520508 167.5324707 C179.31859738 175.21821709 179 181.91453689 179 190 C161.51 190 144.02 190 126 190 C126 205.51 126 221.02 126 237 C107.52 237 89.04 237 70 237 C70 221.49 70 205.98 70 190 C46.9 190 23.8 190 0 190 C0 167.56 0 145.12 0 122 C15.51 122 31.02 122 47 122 C47 94.61 47 67.22 47 39 C31.49 39 15.98 39 0 39 C0 26.13 0 13.26 0 0 Z " fill="#D30939" transform="translate(267,56)"/>
<path d="M0 0 C0 0.66 0 1.32 0 2 C0.86625 2.1546875 0.86625 2.1546875 1.75 2.3125 C4.35661158 3.10896465 5.9735311 4.19065277 8 6 C8 6.66 8 7.32 8 8 C8.66 8 9.32 8 10 8 C10 8.66 10 9.32 10 10 C10.66 10 11.32 10 12 10 C12 10.66 12 11.32 12 12 C12.66 12 13.32 12 14 12 C17 16.38461538 17 16.38461538 17 19 C17.66 19 18.32 19 19 19 C24.73487455 29.87648621 27.17931858 39.47787332 27.1875 51.75 C27.19974609 52.70132813 27.21199219 53.65265625 27.22460938 54.6328125 C27.24274567 63.45914137 26.035117 70.69445262 21.875 78.5625 C21.33617188 79.59503906 20.79734375 80.62757813 20.2421875 81.69140625 C19.83226563 82.45324219 19.42234375 83.21507812 19 84 C18.34 84 17.68 84 17 84 C16.89429687 84.58394531 16.78859375 85.16789062 16.6796875 85.76953125 C14.25961488 93.7112638 4.57816628 100.60374091 -2 105 C-15.69095251 112.19732097 -33.80322793 114.90541161 -48.97265625 110.68359375 C-49.64167969 110.45800781 -50.31070313 110.23242188 -51 110 C-51.78246094 109.74347656 -52.56492188 109.48695313 -53.37109375 109.22265625 C-69.19190048 103.47187939 -81.32836798 92.57795226 -88.69921875 77.53125 C-94.65071926 63.85491689 -95.73372079 46.61032322 -91.5 32.25 C-88.25953766 24.49147368 -83.4430756 16.41450269 -78 10 C-77.34 10 -76.68 10 -76 10 C-76 9.34 -76 8.68 -76 8 C-71.52941176 4 -71.52941176 4 -69 4 C-69 3.34 -69 2.68 -69 2 C-66.77208002 0.87247351 -64.54274113 -0.25208139 -62.3125 -1.375 C-61.68666016 -1.69210937 -61.06082031 -2.00921875 -60.41601562 -2.3359375 C-54.79545993 -5.16092885 -49.92193609 -7.18423479 -43.6875 -8.125 C-42.61886719 -8.29257812 -41.55023438 -8.46015625 -40.44921875 -8.6328125 C-25.87322568 -10.18450372 -12.80088349 -6.7730702 0 0 Z " fill="#FA8816" transform="translate(102,313)"/>
<path d="M0 0 C0.7425 0.5775 1.485 1.155 2.25 1.75 C2.25 2.41 2.25 3.07 2.25 3.75 C2.8275 3.976875 3.405 4.20375 4 4.4375 C6.84739809 6.09848222 8.37067193 8.06524561 10.25 10.75 C10.25 11.41 10.25 12.07 10.25 12.75 C10.91 12.75 11.57 12.75 12.25 12.75 C19.44713071 22.22964931 22.86405168 32.97857611 23.25 44.75 C23.27835937 45.52214844 23.30671875 46.29429687 23.3359375 47.08984375 C23.3750862 49.3174048 23.33547205 51.5238416 23.25 53.75 C23.22164063 54.54019531 23.19328125 55.33039063 23.1640625 56.14453125 C22.46369866 66.73336553 18.51685696 75.31904855 12.25 83.75 C11.70214844 84.52472656 11.15429688 85.29945313 10.58984375 86.09765625 C6.82211875 91.23858398 2.79203587 95.50122035 -2.75 98.75 C-3.41 98.75 -4.07 98.75 -4.75 98.75 C-4.75 99.41 -4.75 100.07 -4.75 100.75 C-6.53306164 101.72425018 -8.32706457 102.67847984 -10.125 103.625 C-11.62160156 104.42550781 -11.62160156 104.42550781 -13.1484375 105.2421875 C-26.64577511 110.8929167 -45.26083175 111.06219656 -58.9140625 106.02734375 C-65.15027639 103.21847055 -71.50971388 100.21574036 -76.75 95.75 C-76.75 95.09 -76.75 94.43 -76.75 93.75 C-77.41 93.75 -78.07 93.75 -78.75 93.75 C-78.75 93.09 -78.75 92.43 -78.75 91.75 C-79.41 91.75 -80.07 91.75 -80.75 91.75 C-80.75 91.09 -80.75 90.43 -80.75 89.75 C-81.41 89.75 -82.07 89.75 -82.75 89.75 C-87.28304575 84.30141299 -90.86601699 78.20602287 -93.75 71.75 C-94.12125 70.96625 -94.4925 70.1825 -94.875 69.375 C-99.21326001 56.36021997 -99.48837799 41.66360525 -94.75 28.75 C-94.45996094 27.90050781 -94.16992188 27.05101562 -93.87109375 26.17578125 C-91.6952475 20.23089588 -88.85939466 14.61082683 -84.75 9.75 C-84.09 9.75 -83.43 9.75 -82.75 9.75 C-82.75 9.09 -82.75 8.43 -82.75 7.75 C-82.09 7.75 -81.43 7.75 -80.75 7.75 C-80.75 7.09 -80.75 6.43 -80.75 5.75 C-80.09 5.75 -79.43 5.75 -78.75 5.75 C-78.75 5.09 -78.75 4.43 -78.75 3.75 C-78.09 3.75 -77.43 3.75 -76.75 3.75 C-76.75 3.09 -76.75 2.43 -76.75 1.75 C-53.18397218 -15.81049169 -24.43960304 -15.3538212 0 0 Z " fill="#9DBD13" transform="translate(408.75,383.25)"/>
<path d="M0 0 C0.73863281 0.00515625 1.47726563 0.0103125 2.23828125 0.015625 C16.45985247 0.76553836 29.20057923 9.24627896 39 18.98828125 C40.43462995 20.60582652 41.73615136 22.24734578 43 24 C43.99 25.299375 43.99 25.299375 45 26.625 C54.15967521 42.08195192 57.61232937 57.55385634 53.3125 75.1875 C49.84768069 88.26036965 43.20104389 99.97258521 32 108 C31.34 108 30.68 108 30 108 C30 108.66 30 109.32 30 110 C16.72467387 119.76606984 0.86730423 122.53616753 -15.3046875 120.60546875 C-25.14952891 118.87536623 -33.3222778 114.74457279 -42 110 C-42 109.34 -42 108.68 -42 108 C-42.8353125 107.62875 -42.8353125 107.62875 -43.6875 107.25 C-48.90218162 104.43125318 -52.0757771 100.85658735 -55.3125 95.9375 C-56.00988281 94.89464844 -56.70726563 93.85179688 -57.42578125 92.77734375 C-59 90 -59 90 -59 87 C-59.66 87 -60.32 87 -61 87 C-67.28607346 71.09477228 -68.55239318 53.12588083 -62.3125 36.9296875 C-59.98322045 31.7304028 -57.29704718 26.65322175 -54 22 C-53.34 22 -52.68 22 -52 22 C-51.34 20.68 -50.68 19.36 -50 18 C-49.34 18 -48.68 18 -48 18 C-48 17.34 -48 16.68 -48 16 C-44.53846154 13 -44.53846154 13 -42 13 C-42 12.34 -42 11.68 -42 11 C-29.23803743 1.3108744 -15.47632864 -0.41771467 0 0 Z " fill="#0B99D7" transform="translate(142,2)"/>
<path d="M0 0 C0 0.66 0 1.32 0 2 C0.86625 2.1546875 0.86625 2.1546875 1.75 2.3125 C4.35661158 3.10896465 5.9735311 4.19065277 8 6 C8 6.66 8 7.32 8 8 C8.58265625 8.24878906 9.1653125 8.49757813 9.765625 8.75390625 C12.31507622 10.17571559 13.83616159 11.74149311 15.75 13.9375 C16.36359375 14.62714844 16.9771875 15.31679687 17.609375 16.02734375 C19 18 19 18 19 21 C19.66 21 20.32 21 21 21 C29.33235343 36.1767866 32.17517806 53.22353272 27.375 70.125 C23.55791864 80.43244966 17.70927313 92.66850118 7.7265625 98.27734375 C6.87191406 98.63505859 6.87191406 98.63505859 6 99 C6 99.66 6 100.32 6 101 C3.77312024 102.29574871 1.54366825 103.58667308 -0.6875 104.875 C-1.62625977 105.42220703 -1.62625977 105.42220703 -2.58398438 105.98046875 C-17.17740972 114.38505926 -33.90626324 114.50694363 -49.96435547 110.57763672 C-61.20029045 107.38931552 -70.26831564 100.53883822 -78 92 C-78 91.34 -78 90.68 -78 90 C-78.66 90 -79.32 90 -80 90 C-90.91256688 74.95835376 -93.16733292 57.96557784 -91 40 C-90.32757461 36.79554522 -89.33638428 33.98201451 -88 31 C-87.62617188 30.09765625 -87.25234375 29.1953125 -86.8671875 28.265625 C-84.46092436 22.66614475 -81.87807273 17.71657494 -78 13 C-77.34 13 -76.68 13 -76 13 C-75.75121094 12.41734375 -75.50242187 11.8346875 -75.24609375 11.234375 C-73.82428441 8.68492378 -72.25850689 7.16383841 -70.0625 5.25 C-69.02802734 4.32960938 -69.02802734 4.32960938 -67.97265625 3.390625 C-66 2 -66 2 -63 2 C-63 1.34 -63 0.68 -63 0 C-42.47652404 -11.02186672 -20.63440098 -10.31720049 0 0 Z " fill="#D30A3B" transform="translate(470,77)"/>
<path d="M0 0 C0 17.16 0 34.32 0 52 C15.51 52 31.02 52 47 52 C47 70.48 47 88.96 47 108 C31.49 108 15.98 108 0 108 C0 131.43 0 154.86 0 179 C-16.7990625 179.0309375 -16.7990625 179.0309375 -33.9375 179.0625 C-37.47847412 179.071604 -41.01944824 179.08070801 -44.66772461 179.09008789 C-48.97961426 179.09460449 -48.97961426 179.09460449 -50.99586487 179.09544373 C-52.40915745 179.09698297 -53.8224487 179.10050751 -55.23573303 179.10557556 C-57.37194107 179.11285548 -59.5080686 179.11390734 -61.64428711 179.11352539 C-63.45297523 179.11685631 -63.45297523 179.11685631 -65.29820251 179.12025452 C-68 179 -68 179 -69 178 C-69.09304018 176.52645652 -69.11746265 175.04849409 -69.11352539 173.57202148 C-69.11340454 172.61791382 -69.11328369 171.66380615 -69.11315918 170.68078613 C-69.10804321 169.67108765 -69.10292725 168.66138916 -69.09765625 167.62109375 C-69.09664917 166.69816528 -69.09564209 165.77523682 -69.09460449 164.82434082 C-69.08935494 161.36204799 -69.07539381 157.8997728 -69.0625 154.4375 C-69.041875 146.703125 -69.02125 138.96875 -69 131 C-96.39 131 -123.78 131 -152 131 C-152 146.84 -152 162.68 -152 179 C-164.54 179 -177.08 179 -190 179 C-190 178.67 -190 178.34 -190 178 C-177.79 178 -165.58 178 -153 178 C-153 161.83 -153 145.66 -153 129 C-131.82700521 128.95989119 -131.82700521 128.95989119 -122.83398438 128.95117188 C-116.68643333 128.94518329 -110.53889711 128.9380826 -104.39135742 128.92456055 C-99.4376859 128.91373213 -94.48403026 128.90772326 -89.53034782 128.90512276 C-87.63602384 128.90326843 -85.74170076 128.89964766 -83.8473835 128.89426994 C-81.20365614 128.88706011 -78.55999529 128.88600903 -75.91625977 128.88647461 C-75.12504227 128.88287933 -74.33382477 128.87928406 -73.51863098 128.87557983 C-68.11405216 128.88594784 -68.11405216 128.88594784 -67 130 C-66.90695982 131.47354348 -66.88253735 132.95150591 -66.88647461 134.42797852 C-66.88659546 135.38208618 -66.88671631 136.33619385 -66.88684082 137.31921387 C-66.89195679 138.32891235 -66.89707275 139.33861084 -66.90234375 140.37890625 C-66.90335083 141.30183472 -66.90435791 142.22476318 -66.90539551 143.17565918 C-66.91064506 146.63795201 -66.92460619 150.1002272 -66.9375 153.5625 C-66.958125 161.296875 -66.97875 169.03125 -67 177 C-45.55 177 -24.1 177 -2 177 C-2.01160156 171.95847656 -2.02320313 166.91695312 -2.03515625 161.72265625 C-2.04026313 158.5371081 -2.04507691 155.35156496 -2.04882812 152.16601562 C-2.05481611 147.10488848 -2.06191521 142.04377936 -2.07543945 136.98266602 C-2.08626991 132.90431457 -2.09227717 128.82598243 -2.09487724 124.74761772 C-2.09673121 123.18822361 -2.10035127 121.6288306 -2.10573006 120.06944466 C-2.11294262 117.89270838 -2.11399085 115.71605286 -2.11352539 113.53930664 C-2.115746 112.29798477 -2.11796661 111.0566629 -2.12025452 109.77772522 C-2 107 -2 107 -1 106 C0.44289787 105.90704185 1.89029785 105.88253487 3.33618164 105.88647461 C4.73688904 105.88665588 4.73688904 105.88665588 6.16589355 105.88684082 C7.15400024 105.89195679 8.14210693 105.89707275 9.16015625 105.90234375 C10.06342651 105.90335083 10.96669678 105.90435791 11.89733887 105.90539551 C15.28573874 105.91064488 18.67412059 105.92460602 22.0625 105.9375 C29.631875 105.958125 37.20125 105.97875 45 106 C44.67 89.17 44.34 72.34 44 55 C29.15 54.67 14.3 54.34 -1 54 C-2.23080509 51.53838983 -2.12043977 49.93503007 -2.11352539 47.18310547 C-2.11344986 46.18221893 -2.11337433 45.1813324 -2.11329651 44.15011597 C-2.10813522 43.06674957 -2.10297394 41.98338318 -2.09765625 40.8671875 C-2.09553383 39.20672897 -2.09553383 39.20672897 -2.09336853 37.51272583 C-2.08775772 33.96679007 -2.07520337 30.42091677 -2.0625 26.875 C-2.05748639 24.47526133 -2.05292325 22.07552167 -2.04882812 19.67578125 C-2.03778478 13.78383275 -2.0210361 7.89192084 -2 2 C-3.8871875 2.2165625 -3.8871875 2.2165625 -5.8125 2.4375 C-6.52019531 2.51871094 -7.22789062 2.59992187 -7.95703125 2.68359375 C-10.19396393 2.97170735 -10.19396393 2.97170735 -13 4 C-13 3.34 -13 2.68 -13 2 C-13.68191406 2.15726563 -14.36382812 2.31453125 -15.06640625 2.4765625 C-19.5249506 3.27209505 -24.00771849 3.33655419 -28.52734375 3.5234375 C-32.25506191 4.03500287 -34.69563093 5.26255629 -38 7 C-41.875 7.1875 -41.875 7.1875 -45 7 C-45.07347656 7.99966797 -45.07347656 7.99966797 -45.1484375 9.01953125 C-46.66445819 27.70840695 -46.66445819 27.70840695 -51 35 C-51.66 35 -52.32 35 -53 35 C-52.80664062 34.34515625 -52.61328125 33.6903125 -52.4140625 33.015625 C-50.43000073 26.06158671 -49.05629095 19.15027718 -48 12 C-47.82984375 10.8553125 -47.82984375 10.8553125 -47.65625 9.6875 C-47.42959901 8.12612652 -47.21317326 6.5632706 -47 5 C-45.23044256 4.53676507 -43.45925488 4.07975792 -41.6875 3.625 C-40.70136719 3.36976562 -39.71523437 3.11453125 -38.69921875 2.8515625 C-24.73071561 -0.36399577 -15.32845125 0 0 0 Z " fill="#43A5CE" transform="translate(253,56)"/>
<path d="M0 0 C3.96 0 7.92 0 12 0 C12 0.33 12 0.66 12 1 C8.37 1 4.74 1 1 1 C1 13.21 1 25.42 1 38 C16.84 37.67 32.68 37.34 49 37 C49.04010881 56.39483758 49.04010881 56.39483758 49.04882812 64.69140625 C49.05479519 70.34229476 49.06183824 75.993167 49.07543945 81.64404297 C49.08634142 86.20223163 49.09229229 90.76040282 49.09487724 95.31860352 C49.09671835 97.05363235 49.10031349 98.78866028 49.10573006 100.52368164 C49.1130376 102.96242301 49.11398687 105.40109311 49.11352539 107.83984375 C49.11712067 108.54978989 49.12071594 109.25973602 49.12442017 109.99119568 C49.11461497 114.8109322 48.60735249 119.14118008 48 124 C32.82 124 17.64 124 2 124 C2 145.45 2 166.9 2 189 C24.44 189 46.88 189 70 189 C70 189.33 70 189.66 70 190 C46.9 190 23.8 190 0 190 C0 167.56 0 145.12 0 122 C15.51 122 31.02 122 47 122 C47 94.61 47 67.22 47 39 C31.49 39 15.98 39 0 39 C0 26.13 0 13.26 0 0 Z " fill="#C83E62" transform="translate(267,56)"/>
<path d="M0 0 C21.17299479 -0.04010881 21.17299479 -0.04010881 30.16601562 -0.04882812 C36.31356667 -0.05481671 42.46110289 -0.0619174 48.60864258 -0.07543945 C53.5623141 -0.08626787 58.51596974 -0.09227674 63.46965218 -0.09487724 C65.36397616 -0.09673157 67.25829924 -0.10035234 69.1526165 -0.10573006 C71.79634386 -0.11293989 74.44000471 -0.11399097 77.08374023 -0.11352539 C77.87495773 -0.11712067 78.66617523 -0.12071594 79.48136902 -0.12442017 C84.88594784 -0.11405216 84.88594784 -0.11405216 86 1 C86.09304018 2.47354348 86.11746265 3.95150591 86.11352539 5.42797852 C86.11340454 6.38208618 86.11328369 7.33619385 86.11315918 8.31921387 C86.10804321 9.32891235 86.10292725 10.33861084 86.09765625 11.37890625 C86.09664917 12.30183472 86.09564209 13.22476318 86.09460449 14.17565918 C86.08935494 17.63795201 86.07539381 21.1002272 86.0625 24.5625 C86.041875 32.296875 86.02125 40.03125 86 48 C107.78 48 129.56 48 152 48 C152.33 48.66 152.66 49.32 153 50 C144.1511761 50.02312589 135.30236253 50.04091634 126.45351505 50.05181217 C122.34505715 50.05704046 118.23661986 50.06413713 114.12817383 50.07543945 C110.16653172 50.08627025 106.20490948 50.09227724 102.24325371 50.09487724 C100.72851689 50.09673114 99.21378121 50.1003511 97.69905281 50.10573006 C95.58458187 50.11294307 93.47019406 50.11399083 91.35571289 50.11352539 C89.54702477 50.11685631 89.54702477 50.11685631 87.70179749 50.12025452 C85 50 85 50 84 49 C83.90695982 47.52645652 83.88253735 46.04849409 83.88647461 44.57202148 C83.88659546 43.61791382 83.88671631 42.66380615 83.88684082 41.68078613 C83.89195679 40.67108765 83.89707275 39.66138916 83.90234375 38.62109375 C83.90335083 37.69816528 83.90435791 36.77523682 83.90539551 35.82434082 C83.91064506 32.36204799 83.92460619 28.8997728 83.9375 25.4375 C83.958125 17.703125 83.97875 9.96875 84 2 C56.61 2 29.22 2 1 2 C1 17.84 1 33.68 1 50 C-11.54 50 -24.08 50 -37 50 C-37 49.67 -37 49.34 -37 49 C-24.79 49 -12.58 49 0 49 C0 32.83 0 16.66 0 0 Z " fill="#76C2DC" transform="translate(100,185)"/>
<path d="M0 0 C22.77 0 45.54 0 69 0 C69 15.84 69 31.68 69 48 C68.34 47.67 67.68 47.34 67 47 C67 32.15 67 17.3 67 2 C45.55 2 24.1 2 2 2 C2.01160156 6.89714844 2.02320313 11.79429687 2.03515625 16.83984375 C2.04026315 19.93424611 2.04507694 23.0286433 2.04882812 26.12304688 C2.05481601 31.03931756 2.06191484 35.95556969 2.07543945 40.87182617 C2.08627025 44.83346828 2.09227724 48.79509052 2.09487724 52.75674629 C2.09673114 54.27148311 2.1003511 55.78621879 2.10573006 57.30094719 C2.11294307 59.41541813 2.11399083 61.52980594 2.11352539 63.64428711 C2.115746 64.85007919 2.11796661 66.05587128 2.12025452 67.29820251 C2 70 2 70 1 71 C-0.47354348 71.09304018 -1.95150591 71.11746265 -3.42797852 71.11352539 C-4.38208618 71.11340454 -5.33619385 71.11328369 -6.31921387 71.11315918 C-7.32891235 71.10804321 -8.33861084 71.10292725 -9.37890625 71.09765625 C-10.30183472 71.09664917 -11.22476318 71.09564209 -12.17565918 71.09460449 C-15.63795201 71.08935494 -19.1002272 71.07539381 -22.5625 71.0625 C-30.296875 71.041875 -38.03125 71.02125 -46 71 C-46 88.49 -46 105.98 -46 124 C-46.33 124 -46.66 124 -47 124 C-47 106.18 -47 88.36 -47 70 C-31.49 70 -15.98 70 0 70 C0 46.9 0 23.8 0 0 Z " fill="#C1D26F" transform="translate(254,260)"/>
<path d="M0 0 C3.96 0 7.92 0 12 0 C12 0.33 12 0.66 12 1 C8.37 1 4.74 1 1 1 C1 13.21 1 25.42 1 38 C16.84 37.67 32.68 37.34 49 37 C49.04010881 56.4750552 49.04010881 56.4750552 49.04882812 64.7890625 C49.05480131 70.45769184 49.0618609 76.12630499 49.07543945 81.79492188 C49.08632037 86.36606905 49.09228788 90.93719887 49.09487724 95.508358 C49.09672211 97.25062203 49.10032465 98.99288513 49.10573006 100.73514175 C49.11300955 103.17908009 49.11398803 105.62294706 49.11352539 108.06689453 C49.11712067 108.78403122 49.12071594 109.50116791 49.12442017 110.24003601 C49.1161989 114.26475055 48.77728464 118.05103886 48 122 C47.67 122 47.34 122 47 122 C47 94.61 47 67.22 47 39 C31.49 39 15.98 39 0 39 C0 26.13 0 13.26 0 0 Z " fill="#D46380" transform="translate(267,56)"/>
<path d="M0 0 C0.66 0 1.32 0 2 0 C2 14.85 2 29.7 2 45 C19.49 45.33 36.98 45.66 55 46 C55 30.82 55 15.64 55 0 C55.33 0 55.66 0 56 0 C56 15.51 56 31.02 56 47 C37.52 47 19.04 47 0 47 C0 31.49 0 15.98 0 0 Z " fill="#B23352" transform="translate(337,246)"/>
<path d="M0 0 C0.66 0.33 1.32 0.66 2 1 C1.505 2.051875 1.01 3.10375 0.5 4.1875 C-0.82779788 7.25452609 -1.30715006 9.62134936 -1 13 C-1.99 13.495 -1.99 13.495 -3 14 C-3.66 13.67 -4.32 13.34 -5 13 C-4.62875 14.0725 -4.2575 15.145 -3.875 16.25 C-3 20 -3 20 -3.6875 22.3125 C-5 24 -5 24 -8 26 C-8.51146198 28.90613434 -8.51146198 28.90613434 -8.51171875 32.3203125 C-8.56489258 34.20556641 -8.56489258 34.20556641 -8.61914062 36.12890625 C-8.64169922 37.44761719 -8.66425781 38.76632813 -8.6875 40.125 C-8.72066529 41.46487759 -8.75515422 42.80472311 -8.79101562 44.14453125 C-8.87373327 47.4296033 -8.94280693 50.71440032 -9 54 C-9.66 54 -10.32 54 -11 54 C-14.28197895 33.48763157 -10.87378507 17.50190686 0 0 Z " fill="#1395CD" transform="translate(88,24)"/>
<path d="M0 0 C17.49 0 34.98 0 53 0 C52.67 0.66 52.34 1.32 52 2 C35.5 2 19 2 2 2 C2.33 8.27 2.66 14.54 3 21 C3.0703125 28.5234375 3.0703125 28.5234375 3 32 C2.67 32 2.34 32 2 32 C-0.4782051 21.11359902 0 11.52240834 0 0 Z " fill="#EFB87C" transform="translate(62,247)"/>
<path d="M0 0 C0.99 0.495 0.99 0.495 2 1 C2 1.99 2 2.98 2 4 C2.66 4 3.32 4 4 4 C11.80490482 18.21607663 14.83292916 33.90999034 11.234375 49.95703125 C9.47141397 55.96648968 7.01014864 61.51722927 4 67 C3.67 67 3.34 67 3 67 C3.33 64.69 3.66 62.38 4 60 C4.66 60 5.32 60 6 60 C5.9071875 58.7625 5.9071875 58.7625 5.8125 57.5 C6 54 6 54 7.5 50.6875 C9.90484304 44.51357583 9.31673651 38.0214732 9.1875 31.5 C9.17396484 30.200625 9.16042969 28.90125 9.14648438 27.5625 C9.11132334 24.37456588 9.06210664 21.18750401 9 18 C7.68 18 6.36 18 5 18 C4.89042969 17.34773438 4.78085937 16.69546875 4.66796875 16.0234375 C3.72955394 10.85071196 2.5575746 6.65013564 0 2 C0 1.34 0 0.68 0 0 Z " fill="#D4627E" transform="translate(487,94)"/>
<path d="M0 0 C1.32 0.66 2.64 1.32 4 2 C2.68 2.33 1.36 2.66 0 3 C0 4.32 0 5.64 0 7 C-1.32 7 -2.64 7 -4 7 C-4.12375 7.804375 -4.2475 8.60875 -4.375 9.4375 C-4.684375 10.7059375 -4.684375 10.7059375 -5 12 C-5.99 12.495 -5.99 12.495 -7 13 C-7.65555119 15.52733235 -7.65555119 15.52733235 -8 18 C-8.886875 18.12375 -9.77375 18.2475 -10.6875 18.375 C-13.93534332 18.87053435 -13.93534332 18.87053435 -16.5625 20.0625 C-19.21261187 21.0817738 -21.18631755 21.16078185 -24 21 C-14.28571429 13 -14.28571429 13 -11 13 C-11 12.34 -11 11.68 -11 11 C-9.56712057 9.80038001 -8.13026321 8.60498972 -6.66796875 7.44140625 C-4.09577474 5.2185969 -2.10560345 2.66296907 0 0 Z " fill="#2EA2D4" transform="translate(192,104)"/>
<path d="M0 0 C0.33 0 0.66 0 1 0 C1 1.65 1 3.3 1 5 C1.66 5 2.32 5 3 5 C3 9.95 3 14.9 3 20 C-14.49 20 -31.98 20 -50 20 C-50 19.67 -50 19.34 -50 19 C-33.5 19 -17 19 0 19 C0 12.73 0 6.46 0 0 Z " fill="#C02D54" transform="translate(443,226)"/>
<path d="M0 0 C1.1456543 0.05317383 1.1456543 0.05317383 2.31445312 0.10742188 C5.98044078 0.31753408 9.2957428 0.69641328 12.80859375 1.79296875 C15.92969927 3.00388913 15.92969927 3.00388913 18.9375 1.6875 C20.6449998 2.96812485 22.31123596 4.30517557 23.9375 5.6875 C24.9275 6.0175 25.9175 6.3475 26.9375 6.6875 C26.9375 6.0275 26.9375 5.3675 26.9375 4.6875 C27.5975 4.6875 28.2575 4.6875 28.9375 4.6875 C28.2775 6.0075 27.6175 7.3275 26.9375 8.6875 C23.77038482 8.17667497 20.88156413 7.33236309 17.875 6.25 C6.3501307 2.39578142 -5.06019139 2.44745383 -17.0625 2.6875 C-17.0625 2.0275 -17.0625 1.3675 -17.0625 0.6875 C-11.25605477 -0.19106339 -5.85399605 -0.36246116 0 0 Z " fill="#B7CA59" transform="translate(376.0625,360.3125)"/>
<path d="M0 0 C12.87 0 25.74 0 39 0 C40.00131865 4.0052746 39.89215375 5.88296559 39.22265625 9.859375 C39.03896484 10.97441406 38.85527344 12.08945312 38.66601562 13.23828125 C38.46685547 14.39714844 38.26769531 15.55601562 38.0625 16.75 C37.86720703 17.92433594 37.67191406 19.09867187 37.47070312 20.30859375 C36.98763371 23.20701025 36.49714131 26.10396967 36 29 C35.67 29 35.34 29 35 29 C35 23.39 35 17.78 35 12 C35.66 12 36.32 12 37 12 C37 8.7 37 5.4 37 2 C24.79 2 12.58 2 0 2 C0 1.34 0 0.68 0 0 Z " fill="#BBCD67" transform="translate(406,260)"/>
<path d="M0 0 C-0.90363281 0.27714844 -1.80726563 0.55429687 -2.73828125 0.83984375 C-3.91777344 1.20207031 -5.09726563 1.56429687 -6.3125 1.9375 C-8.07013672 2.47697266 -8.07013672 2.47697266 -9.86328125 3.02734375 C-11.91553977 3.66372279 -13.96160137 4.32053379 -16 5 C-17.66621616 5.03874921 -19.33394172 5.0450286 -21 5 C-21.04898438 5.66644531 -21.09796875 6.33289063 -21.1484375 7.01953125 C-22.66445819 25.70840695 -22.66445819 25.70840695 -27 33 C-27.66 33 -28.32 33 -29 33 C-28.80664062 32.34515625 -28.61328125 31.6903125 -28.4140625 31.015625 C-26.43000073 24.06158671 -25.05629095 17.15027718 -24 10 C-23.8865625 9.236875 -23.773125 8.47375 -23.65625 7.6875 C-23.42959901 6.12612652 -23.21317326 4.5632706 -23 3 C-5.50790068 -1.56690278 -5.50790068 -1.56690278 0 0 Z " fill="#56B4DA" transform="translate(229,58)"/>
<path d="M0 0 C0.66 0 1.32 0 2 0 C2.33 1.98 2.66 3.96 3 6 C3.66 6 4.32 6 5 6 C6.55537135 10.144061 7.24857331 13.56402182 7.23046875 17.984375 C7.22853516 19.08394531 7.22660156 20.18351562 7.22460938 21.31640625 C7.21236328 22.44949219 7.20011719 23.58257812 7.1875 24.75 C7.18685547 25.89855469 7.18621094 27.04710937 7.18554688 28.23046875 C7.14055525 36.71888951 7.14055525 36.71888951 6 39 C5.34 39 4.68 39 4 39 C4.02320313 37.76765625 4.04640625 36.5353125 4.0703125 35.265625 C4.23139838 23.0193811 3.19294811 11.85952156 0 0 Z " fill="#EC8A27" transform="translate(134,339)"/>
<path d="M0 0 C1.4606285 2.64738916 2 3.89448334 2 7 C1.34 7 0.68 7 0 7 C0 13.27 0 19.54 0 26 C0.66 26 1.32 26 2 26 C2 29.3 2 32.6 2 36 C2.66 36 3.32 36 4 36 C4 37.98 4 39.96 4 42 C2 41 2 41 1 39.0625 C-3.0634191 26.61827902 -3.67203496 12.62262019 0 0 Z " fill="#C0D072" transform="translate(313,414)"/>
<path d="M0 0 C0.92643311 0.00499512 1.85286621 0.00999023 2.80737305 0.01513672 C3.98082275 0.03334473 5.15427246 0.05155273 6.36328125 0.0703125 C10.09640625 0.1115625 13.82953125 0.1528125 17.67578125 0.1953125 C17.67578125 14.0553125 17.67578125 27.9153125 17.67578125 42.1953125 C17.34578125 42.1953125 17.01578125 42.1953125 16.67578125 42.1953125 C16.67578125 28.6653125 16.67578125 15.1353125 16.67578125 1.1953125 C9.42755977 1.83576625 9.42755977 1.83576625 5.67578125 3.1953125 C5.67578125 2.5353125 5.67578125 1.8753125 5.67578125 1.1953125 C5.03640625 1.3603125 4.39703125 1.5253125 3.73828125 1.6953125 C-0.30008527 2.35463765 -4.24229133 2.27535029 -8.32421875 2.1953125 C-4.97302356 -0.03881763 -3.90644325 -0.04316512 0 0 Z " fill="#1593C7" transform="translate(234.32421875,56.8046875)"/>
<path d="M0 0 C1.32 0 2.64 0 4 0 C4.33 0.66 4.66 1.32 5 2 C7.52733235 2.65555119 7.52733235 2.65555119 10 3 C10 3.66 10 4.32 10 5 C10.86625 5.0825 11.7325 5.165 12.625 5.25 C16.49577867 6.11017304 18.74634921 7.7847484 22 10 C24.7282504 10.78215588 24.7282504 10.78215588 27 11 C27 11.66 27 12.32 27 13 C27.639375 13.12375 28.27875 13.2475 28.9375 13.375 C29.618125 13.58125 30.29875 13.7875 31 14 C31.33 14.66 31.66 15.32 32 16 C27.49673373 15.32190199 23.51574903 13.69618101 19.375 11.875 C18.67439453 11.56804199 17.97378906 11.26108398 17.25195312 10.94482422 C11.14200634 8.19590717 5.37605282 5.03203962 0 1 C0 0.67 0 0.34 0 0 Z " fill="#ECA458" transform="translate(153,410)"/>
<path d="M0 0 C0.99 0.33 1.98 0.66 3 1 C3 1.66 3 2.32 3 3 C3.66 3 4.32 3 5 3 C5 3.66 5 4.32 5 5 C5.66 5 6.32 5 7 5 C7 5.66 7 6.32 7 7 C7.66 7 8.32 7 9 7 C12 11.38461538 12 11.38461538 12 14 C12.66 14 13.32 14 14 14 C14.66 15.98 15.32 17.96 16 20 C14.0625 19.6875 14.0625 19.6875 12 19 C11.67 18.01 11.34 17.02 11 16 C9.35 15.67 7.7 15.34 6 15 C5.375 13.1875 5.375 13.1875 5 11 C5.66 10.01 6.32 9.02 7 8 C6.01 7.67 5.02 7.34 4 7 C4 6.34 4 5.68 4 5 C3.01 4.67 2.02 4.34 1 4 C0.3125 1.9375 0.3125 1.9375 0 0 Z " fill="#F3871B" transform="translate(107,318)"/>
<path d="M0 0 C1.85776765 3.13498292 2.20140476 5.37471432 2 9 C2.66 9.33 3.32 9.66 4 10 C3.67 11.65 3.34 13.3 3 15 C10.59 15 18.18 15 26 15 C25.67 15.99 25.34 16.98 25 18 C26.98 18.33 28.96 18.66 31 19 C31 19.66 31 20.32 31 21 C32.32 21.33 33.64 21.66 35 22 C33 23 33 23 30.75 22.29296875 C29.8425 21.92816406 28.935 21.56335938 28 21.1875 C19.47867771 17.96561804 11.04759628 16.73150778 2 16 C0.61470179 10.54538831 -0.2396943 5.63281599 0 0 Z " fill="#ECAC67" transform="translate(65,279)"/>
<path d="M0 0 C13.2 0 26.4 0 40 0 C32.87447522 3.56276239 24.09006175 3.5957963 16.28515625 2.2578125 C10.58476007 1.61469088 4.73266802 1.9328203 -1 2 C-0.67 1.34 -0.34 0.68 0 0 Z " fill="#F2881F" transform="translate(194,401)"/>
<path d="M0 0 C7.56981132 0.89811321 7.56981132 0.89811321 10.375 1.5625 C14.56278509 2.26046418 18.76438378 2.07402048 23 2 C23 2.66 23 3.32 23 4 C29.93 4.495 29.93 4.495 37 5 C37 5.33 37 5.66 37 6 C12.29767618 6.86476426 12.29767618 6.86476426 2 2 C1.34 1.34 0.68 0.68 0 0 Z " fill="#B4C855" transform="translate(345,486)"/>
<path d="M0 0 C2 1 2 1 3.0625 3.875 C5.95276048 14.9808828 5.31832404 26.72362119 4 38 C3.67 38 3.34 38 3 38 C2.95101563 36.82566406 2.90203125 35.65132813 2.8515625 34.44140625 C2.40832748 24.64621946 1.650956 14.97181547 0.40234375 5.24609375 C0 2 0 2 0 0 Z " fill="#BACC63" transform="translate(427,409)"/>
<path d="M0 0 C1.5 1.3125 1.5 1.3125 3 3 C3 3.99 3 4.98 3 6 C3.66 6 4.32 6 5 6 C6.31626692 9.61973402 7 12.09567131 7 16 C7.66 16 8.32 16 9 16 C10.4606285 18.64738916 11 19.89448334 11 23 C11.66 23 12.32 23 13 23 C13.33 24.65 13.66 26.3 14 28 C6.55103174 21.4023424 2.76710224 12.42978975 0 3 C0 2.01 0 1.02 0 0 Z " fill="#ECA453" transform="translate(10,377)"/>
<path d="M0 0 C8.96354621 -0.17927092 17.21720653 0.19840134 26 2 C26 2.33 26 2.66 26 3 C18.08 3 10.16 3 2 3 C1.67 9.6 1.34 16.2 1 23 C0.67 23 0.34 23 0 23 C0 15.41 0 7.82 0 0 Z " fill="#C52D54" transform="translate(268,57)"/>
<path d="M0 0 C2.41478124 4.19341981 1.87578987 7.55081673 1.1875 12.1875 C1.09146484 12.92419922 0.99542969 13.66089844 0.89648438 14.41992188 C0.152502 19.847498 0.152502 19.847498 -1 21 C-1.23481693 23.18292774 -1.41363323 25.37203174 -1.5625 27.5625 C-1.64628906 28.76003906 -1.73007813 29.95757812 -1.81640625 31.19140625 C-1.87699219 32.11824219 -1.93757813 33.04507813 -2 34 C-3.485 34.495 -3.485 34.495 -5 35 C-4.40441531 27.01677879 -3.30400812 19.19768645 -1.9375 11.3125 C-1.75123047 10.21744141 -1.56496094 9.12238281 -1.37304688 7.99414062 C-0.9191176 5.32876102 -0.4613836 2.66409751 0 0 Z " fill="#52ADD4" transform="translate(67,199)"/>
<path d="M0 0 C-1.32 0.33 -2.64 0.66 -4 1 C-4 1.66 -4 2.32 -4 3 C-9.45476849 7.01283174 -15.51300333 10.09863891 -22 12 C-24.2265625 11.56640625 -24.2265625 11.56640625 -26 11 C-25.01 11 -24.02 11 -23 11 C-23 10.34 -23 9.68 -23 9 C-21.68 8.34 -20.36 7.68 -19 7 C-19 6.67 -19 6.34 -19 6 C-17.35 6 -15.7 6 -14 6 C-13.67 5.01 -13.34 4.02 -13 3 C-11.68 3.33 -10.36 3.66 -9 4 C-9 3.34 -9 2.68 -9 2 C-8.01 2 -7.02 2 -6 2 C-6 1.34 -6 0.68 -6 0 C-3.50907189 -1.24546405 -2.58919267 -0.7767578 0 0 Z " fill="#52AFD4" transform="translate(176,109)"/>
<path d="M0 0 C0 0.33 0 0.66 0 1 C-0.74161377 1.05534912 -1.48322754 1.11069824 -2.24731445 1.16772461 C-5.60268708 1.42037 -8.95758396 1.67886514 -12.3125 1.9375 C-13.47974609 2.02451172 -14.64699219 2.11152344 -15.84960938 2.20117188 C-17.52700195 2.33168945 -17.52700195 2.33168945 -19.23828125 2.46484375 C-20.26993408 2.543396 -21.30158691 2.62194824 -22.36450195 2.70288086 C-25.10437997 2.91926092 -25.10437997 2.91926092 -28 4 C-28 4.66 -28 5.32 -28 6 C-30.31 5.67 -32.62 5.34 -35 5 C-25.1426203 -1.57158646 -11.38156532 -2.27631306 0 0 Z " fill="#EDAC68" transform="translate(79,305)"/>
<path d="M0 0 C-3.12621626 3.39417765 -5.56541027 5.6062718 -10 7 C-10 7.66 -10 8.32 -10 9 C-15.445 11.475 -15.445 11.475 -21 14 C-21.33 13.34 -21.66 12.68 -22 12 C-21.01 12 -20.02 12 -19 12 C-19 11.34 -19 10.68 -19 10 C-17.68 10 -16.36 10 -15 10 C-15 9.34 -15 8.68 -15 8 C-14.21625 7.7525 -13.4325 7.505 -12.625 7.25 C-9.58535135 5.80254826 -9.30093863 4.97357402 -8 2 C-4.77208445 -0.1519437 -3.71599191 -0.20086443 0 0 Z " fill="#B5C954" transform="translate(414,475)"/>
<path d="M0 0 C0.66 0.33 1.32 0.66 2 1 C1.77139942 2.46184058 1.51629608 3.91955419 1.25 5.375 C1.11078125 6.18710937 0.9715625 6.99921875 0.828125 7.8359375 C0 10 0 10 -2.078125 11.2890625 C-3.02945312 11.64097656 -3.02945312 11.64097656 -4 12 C-4 11.34 -4 10.68 -4 10 C-5.32 10 -6.64 10 -8 10 C-8 9.34 -8 8.68 -8 8 C-7.34 8 -6.68 8 -6 8 C-6 7.34 -6 6.68 -6 6 C-5.34 6 -4.68 6 -4 6 C-4 5.34 -4 4.68 -4 4 C-3.34 4 -2.68 4 -2 4 C-2 3.34 -2 2.68 -2 2 C-1.34 2 -0.68 2 0 2 C0 1.34 0 0.68 0 0 Z " fill="#ABC43F" transform="translate(332,385)"/>
<path d="M0 0 C1 3 1 3 0.21484375 4.7265625 C-0.20667969 5.35304688 -0.62820313 5.97953125 -1.0625 6.625 C-1.52398437 7.31980469 -1.98546875 8.01460938 -2.4609375 8.73046875 C-2.96882813 9.47941406 -3.47671875 10.22835938 -4 11 C-4.52851563 11.82113281 -5.05703125 12.64226562 -5.6015625 13.48828125 C-9.73098467 19.86549233 -9.73098467 19.86549233 -12 21 C-12.33 19.68 -12.66 18.36 -13 17 C-12.34 17 -11.68 17 -11 17 C-10.34 15.35 -9.68 13.7 -9 12 C-8.34 12 -7.68 12 -7 12 C-7 11.01 -7 10.02 -7 9 C-6.34 9 -5.68 9 -5 9 C-5 8.01 -5 7.02 -5 6 C-4.34 6 -3.68 6 -3 6 C-2.87625 5.195625 -2.7525 4.39125 -2.625 3.5625 C-2.41875 2.716875 -2.2125 1.87125 -2 1 C-1.34 0.67 -0.68 0.34 0 0 Z " fill="#B7CB5A" transform="translate(422,337)"/>
<path d="M0 0 C1.06212477 2.76152441 1.03594164 3.8945712 0.0625 6.75 C-0.8950603 9.67900798 -1.09184342 11.26779007 -1 14.25 C-1 15.4875 -1 16.725 -1 18 C-3 20 -3 20 -6 21 C-7.35877888 16.92366336 -6.17330445 15.05115252 -4.6875 11.0625 C-4.23761719 9.83660156 -3.78773437 8.61070312 -3.32421875 7.34765625 C-2.3196612 4.80811107 -1.28372331 2.40472114 0 0 Z " fill="#42AAD5" transform="translate(79,166)"/>
<path d="M0 0 C2.475 0.99 2.475 0.99 5 2 C5 2.66 5 3.32 5 4 C5.763125 4.28875 6.52625 4.5775 7.3125 4.875 C10 6 10 6 13 8 C12.24029922 11.35867712 11.12906745 14.52123658 9.9375 17.75 C9.57527344 18.73484375 9.21304687 19.7196875 8.83984375 20.734375 C8.56269531 21.48203125 8.28554688 22.2296875 8 23 C6.92825237 19.34811918 7.23588533 16.73567172 8 13 C8.66 13 9.32 13 10 13 C8.60004691 8.10016418 5.91794204 6.10170412 2 3 C1.34 2.01 0.68 1.02 0 0 Z " fill="#D15C7C" transform="translate(363,90)"/>
<path d="M0 0 C0.66 0.33 1.32 0.66 2 1 C1.505 2.051875 1.01 3.10375 0.5 4.1875 C-0.82779788 7.25452609 -1.30715006 9.62134936 -1 13 C-1.99 13.495 -1.99 13.495 -3 14 C-3.66 13.67 -4.32 13.34 -5 13 C-5 14.65 -5 16.3 -5 18 C-6.32 18.33 -7.64 18.66 -9 19 C-8.28221677 15.32246862 -6.75049263 12.26808693 -5.0625 8.9375 C-4.53785156 7.89464844 -4.01320313 6.85179687 -3.47265625 5.77734375 C-2 3 -2 3 0 0 Z " fill="#55B2D8" transform="translate(88,24)"/>
<path d="M0 0 C0.89783203 -0.01224609 1.79566406 -0.02449219 2.72070312 -0.03710938 C3.58759766 -0.03904297 4.45449219 -0.04097656 5.34765625 -0.04296875 C6.13277588 -0.04707764 6.91789551 -0.05118652 7.72680664 -0.05541992 C10.18225115 0.21439425 11.80972319 0.96335365 13.9375 2.1875 C13.34735107 2.18226318 12.75720215 2.17702637 12.14916992 2.17163086 C9.47445745 2.15083953 6.79976199 2.13783299 4.125 2.125 C2.7318457 2.11243164 2.7318457 2.11243164 1.31054688 2.09960938 C0.41787109 2.09638672 -0.47480469 2.09316406 -1.39453125 2.08984375 C-2.21671143 2.08460693 -3.0388916 2.07937012 -3.88598633 2.07397461 C-6.24422596 2.10008476 -6.24422596 2.10008476 -9.0625 3.1875 C-10.79045352 3.25552967 -12.52085365 3.27245645 -14.25 3.25 C-15.60158203 3.23646484 -15.60158203 3.23646484 -16.98046875 3.22265625 C-17.66753906 3.21105469 -18.35460937 3.19945312 -19.0625 3.1875 C-12.94732622 -0.20981877 -6.8219339 0.00491848 0 0 Z " fill="#B8C961" transform="translate(372.0625,371.8125)"/>
<path d="M0 0 C1.32 0.66 2.64 1.32 4 2 C2.68 2.33 1.36 2.66 0 3 C0 4.32 0 5.64 0 7 C-1.32 7 -2.64 7 -4 7 C-4.33 8.65 -4.66 10.3 -5 12 C-6.65 12 -8.3 12 -10 12 C-10 12.66 -10 13.32 -10 14 C-11.32 14.33 -12.64 14.66 -14 15 C-13.67 14.34 -13.34 13.68 -13 13 C-12.34 13 -11.68 13 -11 13 C-11 12.34 -11 11.68 -11 11 C-9.56712057 9.80038001 -8.13026321 8.60498972 -6.66796875 7.44140625 C-4.09577474 5.2185969 -2.10560345 2.66296907 0 0 Z " fill="#46ABD4" transform="translate(192,104)"/>
<path d="M0 0 C8.57181354 0.5980335 18.23685507 3.42356455 24 10 C21.03 9.34 18.06 8.68 15 8 C15 7.34 15 6.68 15 6 C14.236875 6.04125 13.47375 6.0825 12.6875 6.125 C10 6 10 6 7 4 C6.34 4 5.68 4 5 4 C4.67 3.34 4.34 2.68 4 2 C1.98330173 0.86649466 1.98330173 0.86649466 0 0 Z " fill="#60B7D8" transform="translate(146,3)"/>
<path d="M0 0 C0.66 0.99 1.32 1.98 2 3 C1.67 3.33 1.34 3.66 1 4 C0.84141158 6.14386657 0.74870702 8.29266838 0.68359375 10.44140625 C0.64169922 11.74658203 0.59980469 13.05175781 0.55664062 14.39648438 C0.51682392 15.7851533 0.47711175 17.17382522 0.4375 18.5625 C0.39432011 19.95509183 0.350706 21.34767028 0.30664062 22.74023438 C0.20014124 26.16004801 0.09813077 29.57993763 0 33 C-0.33 33 -0.66 33 -1 33 C-2.53400809 23.41244944 -4.47446559 8.94893118 0 0 Z " fill="#5BB2D5" transform="translate(78,45)"/>
<path d="M0 0 C0.33 0 0.66 0 1 0 C1 1.65 1 3.3 1 5 C1.66 5 2.32 5 3 5 C3 9.95 3 14.9 3 20 C2.01 19.67 1.02 19.34 0 19 C0 12.73 0 6.46 0 0 Z " fill="#CA5072" transform="translate(443,226)"/>
<path d="M0 0 C0.66 0 1.32 0 2 0 C1.81824219 0.59425781 1.63648438 1.18851562 1.44921875 1.80078125 C-0.48261153 8.17086777 -2.27652526 14.57058358 -4 21 C-4.33 21 -4.66 21 -5 21 C-5 19.35 -5 17.7 -5 16 C-5.66 16 -6.32 16 -7 16 C-6.67 14.35 -6.34 12.7 -6 11 C-5.01 10.67 -4.02 10.34 -3 10 C-2.67 7.69 -2.34 5.38 -2 3 C-1.34 3 -0.68 3 0 3 C0 2.01 0 1.02 0 0 Z " fill="#ABC242" transform="translate(307,400)"/>
<path d="M0 0 C3.37996604 3.37996604 4.125 6.6387273 4.125 11.3125 C4.08375 12.529375 4.0425 13.74625 4 15 C2 14 2 14 1 11 C0.01 11.99 -0.98 12.98 -2 14 C-2.1799928 8.78020872 -1.97094808 4.92737019 0 0 Z " fill="#F4891C" transform="translate(123,338)"/>
<path d="M0 0 C6.94170563 0.33055741 12.79081025 0.75428718 19 4 C19 4.66 19 5.32 19 6 C19.66 6.33 20.32 6.66 21 7 C13.65313537 5.78880323 6.92810652 3.71328887 0 1 C0 0.67 0 0.34 0 0 Z " fill="#EDA75D" transform="translate(185,426)"/>
<path d="M0 0 C0 0.66 0 1.32 0 2 C-1.32 2 -2.64 2 -4 2 C-4.268125 2.639375 -4.53625 3.27875 -4.8125 3.9375 C-6 6 -6 6 -9 7 C-9.66 6.67 -10.32 6.34 -11 6 C-11 6.66 -11 7.32 -11 8 C-13.31 8.33 -15.62 8.66 -18 9 C-15.75258428 6.54435727 -13.47444325 4.97583221 -10.5625 3.375 C-9.80066406 2.94960938 -9.03882813 2.52421875 -8.25390625 2.0859375 C-5.4746182 0.74686978 -3.08733565 0 0 0 Z " fill="#B3C84E" transform="translate(353,375)"/>
<path d="M0 0 C0.66 0 1.32 0 2 0 C1.69196223 7.85496312 -1.53090484 14.04059197 -5 21 C-5.33 21 -5.66 21 -6 21 C-5.67 18.69 -5.34 16.38 -5 14 C-4.34 14 -3.68 14 -3 14 C-3.061875 13.175 -3.12375 12.35 -3.1875 11.5 C-2.95275338 7.11806304 -1.67381346 4.04504918 0 0 Z " fill="#CF506F" transform="translate(496,140)"/>
<path d="M0 0 C0.33 0.99 0.66 1.98 1 3 C0.67 3.66 0.34 4.32 0 5 C-0.66 5 -1.32 5 -2 5 C-1.938125 5.94875 -1.87625 6.8975 -1.8125 7.875 C-1.874375 8.90625 -1.93625 9.9375 -2 11 C-2.99 11.66 -3.98 12.32 -5 13 C-5.72965366 15.56282742 -5.72965366 15.56282742 -6 18 C-6.99 18.33 -7.98 18.66 -9 19 C-7.24872057 11.64155399 -4.52096452 6.0572146 0 0 Z " fill="#B6C95C" transform="translate(323,395)"/>
<path d="M0 0 C1.670625 0.47566406 1.670625 0.47566406 3.375 0.9609375 C8.23847649 2.17680662 13.00578435 2.44088145 18 2.625 C18.87011719 2.66367188 19.74023438 2.70234375 20.63671875 2.7421875 C22.75750486 2.83540887 24.87872185 2.91874136 27 3 C27 3.33 27 3.66 27 4 C18.42 4 9.84 4 1 4 C0.67 2.68 0.34 1.36 0 0 Z " fill="#5FBBDB" transform="translate(115,129)"/>
<path d="M0 0 C4.8991349 1.29977048 9.37559575 2.92373687 14 5 C13.67 5.66 13.34 6.32 13 7 C12.37351562 6.9278125 11.74703125 6.855625 11.1015625 6.78125 C10.28429687 6.6884375 9.46703125 6.595625 8.625 6.5 C7.81289063 6.4071875 7.00078125 6.314375 6.1640625 6.21875 C4.03087175 5.96647649 4.03087175 5.96647649 2 6 C1.34 4.02 0.68 2.04 0 0 Z " fill="#CF466A" transform="translate(456,72)"/>
<path d="M0 0 C0.33 0 0.66 0 1 0 C1 1.65 1 3.3 1 5 C2.98 4.67 4.96 4.34 7 4 C7.33 5.98 7.66 7.96 8 10 C7.01 10.495 7.01 10.495 6 11 C3.69 9.35 1.38 7.7 -1 6 C-0.67 4.02 -0.34 2.04 0 0 Z " fill="#EFA75B" transform="translate(133,391)"/>
<path d="M0 0 C0.33 0 0.66 0 1 0 C1 2.97 1 5.94 1 9 C-2.7688342 10.8844171 -4.68012475 11.33429462 -8.75 11.625 C-10.22726562 11.73714844 -10.22726562 11.73714844 -11.734375 11.8515625 C-12.48203125 11.90054687 -13.2296875 11.94953125 -14 12 C-13.67 11.01 -13.34 10.02 -13 9 C-6.565 8.505 -6.565 8.505 0 8 C0 5.36 0 2.72 0 0 Z " fill="#BBCC63" transform="translate(301,424)"/>
<path d="M0 0 C-0.71971619 3.75345656 -2.33112202 6.86091969 -4.0625 10.25 C-4.61035156 11.32765625 -5.15820312 12.4053125 -5.72265625 13.515625 C-6.14417969 14.33546875 -6.56570313 15.1553125 -7 16 C-7.33 16 -7.66 16 -8 16 C-8 14.35 -8 12.7 -8 11 C-7.34 11 -6.68 11 -6 11 C-5.87882812 10.28972656 -5.75765625 9.57945312 -5.6328125 8.84765625 C-5.46523438 7.92855469 -5.29765625 7.00945312 -5.125 6.0625 C-4.96257812 5.14597656 -4.80015625 4.22945313 -4.6328125 3.28515625 C-4.31957031 2.15400391 -4.31957031 2.15400391 -4 1 C-2 0 -2 0 0 0 Z " fill="#B9CB60" transform="translate(431,321)"/>
<path d="M0 0 C1.4540625 0.0309375 1.4540625 0.0309375 2.9375 0.0625 C2.9375 0.7225 2.9375 1.3825 2.9375 2.0625 C2.009375 2.26875 1.08125 2.475 0.125 2.6875 C-3.93152085 4.43737174 -4.20552544 6.18707482 -6.0625 10.0625 C-8.65234375 11.25 -8.65234375 11.25 -11.0625 12.0625 C-9.91823734 10.249008 -8.77204608 8.43673275 -7.625 6.625 C-6.66787109 5.11099609 -6.66787109 5.11099609 -5.69140625 3.56640625 C-3.41665591 0.06972767 -3.41665591 0.06972767 0 0 Z " fill="#4CAAD0" transform="translate(107.0625,125.9375)"/>
<path d="M0 0 C1.65 0 3.3 0 5 0 C5.33 0.99 5.66 1.98 6 3 C8.50447516 4.21869929 8.50447516 4.21869929 11 5 C11 6.65 11 8.3 11 10 C10.34 10 9.68 10 9 10 C9 9.34 9 8.68 9 8 C8.443125 7.7525 7.88625 7.505 7.3125 7.25 C4.57589087 5.77075182 2.32349131 4.06532561 0 2 C0 1.34 0 0.68 0 0 Z " fill="#47ACD1" transform="translate(91,102)"/>
<path d="M0 0 C0.99 0 1.98 0 3 0 C3 3.3 3 6.6 3 10 C3.66 10 4.32 10 5 10 C5 11.98 5 13.96 5 16 C3 15 3 15 1.9375 13.0625 C0.62215095 8.76569309 0.32963785 4.46746033 0 0 Z " fill="#B6CB58" transform="translate(312,440)"/>
<path d="M0 0 C0.99 0.33 1.98 0.66 3 1 C0.75592792 4.36610811 -0.27258198 4.78288384 -3.9375 6.1875 C-4.81277344 6.53167969 -5.68804687 6.87585938 -6.58984375 7.23046875 C-9 8 -9 8 -12 8 C-12 7.34 -12 6.68 -12 6 C-10.35 5.67 -8.7 5.34 -7 5 C-7 4.34 -7 3.68 -7 3 C-4.69 2.34 -2.38 1.68 0 1 C0 0.67 0 0.34 0 0 Z " fill="#ECA359" transform="translate(99,414)"/>
<path d="M0 0 C2.31 0 4.62 0 7 0 C6.67 0.66 6.34 1.32 6 2 C5.01 2 4.02 2 3 2 C3 2.66 3 3.32 3 4 C0.03 5.65 -2.94 7.3 -6 9 C-6 6 -6 6 -4 4 C-3.01 4 -2.02 4 -1 4 C-0.67 2.68 -0.34 1.36 0 0 Z " fill="#B4C857" transform="translate(333,369)"/>
<path d="M0 0 C-3.19769736 2.13179824 -5.47216494 2.63246367 -9.16015625 3.33984375 C-11.38490539 3.93188224 -11.38490539 3.93188224 -13 7 C-16.125 8.1875 -16.125 8.1875 -19 9 C-18.34 8.01 -17.68 7.02 -17 6 C-16.34 6 -15.68 6 -15 6 C-15 5.34 -15 4.68 -15 4 C-5.77448747 -1.92482916 -5.77448747 -1.92482916 0 0 Z " fill="#EEAD69" transform="translate(48,311)"/>
<path d="M0 0 C0.33 0 0.66 0 1 0 C1.22731216 6.93302093 0.42002108 13.2168636 -1 20 C-1.33 20 -1.66 20 -2 20 C-2 14.39 -2 8.78 -2 3 C-1.34 3 -0.68 3 0 3 C0 2.01 0 1.02 0 0 Z " fill="#B5C953" transform="translate(443,269)"/>
<path d="M0 0 C0.66 0 1.32 0 2 0 C0.7819075 3.65427749 -0.63824799 4.13131136 -3.96679688 5.80078125 C-4.94229492 6.27064453 -4.94229492 6.27064453 -5.9375 6.75 C-6.58396484 7.07871094 -7.23042969 7.40742188 -7.89648438 7.74609375 C-9.56500556 8.56735963 -11.28060285 9.29139996 -13 10 C-13.66 9.67 -14.32 9.34 -15 9 C-12.8709858 6.65808437 -10.95591271 5.16445046 -8 4 C-6.68 4 -5.36 4 -4 4 C-4 3.34 -4 2.68 -4 2 C-2.68 2 -1.36 2 0 2 C0 1.34 0 0.68 0 0 Z " fill="#CE516E" transform="translate(472,177)"/>
<path d="M0 0 C2 2 2 2 2 5 C1.443125 5.268125 0.88625 5.53625 0.3125 5.8125 C-2.19712523 7.10122647 -4.59334236 8.52926478 -7 10 C-7 6.47967572 -6.29648649 5.5614657 -4 3 C-3.34 3 -2.68 3 -2 3 C-2 2.34 -2 1.68 -2 1 C-1.34 0.67 -0.68 0.34 0 0 Z " fill="#F0A551" transform="translate(28,320)"/>
<path d="M0 0 C2.97 0.33 5.94 0.66 9 1 C9.33 2.32 9.66 3.64 10 5 C10.66 5.33 11.32 5.66 12 6 C14 7 14 7 14.75 9.125 C14.87375 10.053125 14.87375 10.053125 15 11 C14.01 10.67 13.02 10.34 12 10 C12 9.34 12 8.68 12 8 C11.42765625 7.72285156 10.8553125 7.44570313 10.265625 7.16015625 C8.02232523 6.01143206 5.89123711 4.76586006 3.75 3.4375 C3.04359375 3.00308594 2.3371875 2.56867188 1.609375 2.12109375 C1.07828125 1.75113281 0.5471875 1.38117188 0 1 C0 0.67 0 0.34 0 0 Z " fill="#EEAC66" transform="translate(105,305)"/>
<path d="M0 0 C4.11118347 3.3281009 5.69329052 7.8296653 6.41015625 12.90234375 C6.65677459 15.60125147 6.85807914 18.29371602 7 21 C6.34 20.67 5.68 20.34 5 20 C5 17.03 5 14.06 5 11 C4.34 11 3.68 11 3 11 C0 4.5 0 4.5 0 0 Z " fill="#68BADD" transform="translate(189,35)"/>
<path d="M0 0 C0.66 0.33 1.32 0.66 2 1 C2 1.66 2 2.32 2 3 C2.66 3.33 3.32 3.66 4 4 C2.71372289 5.17260611 1.42080217 6.3379283 0.125 7.5 C-0.59429687 8.1496875 -1.31359375 8.799375 -2.0546875 9.46875 C-4 11 -4 11 -6 11 C-5.49396008 8.83125748 -5.00016187 7.00032373 -4 5 C-3.01 5 -2.02 5 -1 5 C-0.67 3.35 -0.34 1.7 0 0 Z " fill="#F19C47" transform="translate(108,404)"/>
<path d="M0 0 C1.58624235 0.42683239 3.1689098 0.86696158 4.75 1.3125 C6.07257813 1.67794922 6.07257813 1.67794922 7.421875 2.05078125 C10.05772505 3.02125331 11.85407326 4.21005644 14 6 C11.36 6 8.72 6 6 6 C5.67 5.01 5.34 4.02 5 3 C3.35 3 1.7 3 0 3 C0 2.01 0 1.02 0 0 Z " fill="#EFA65E" transform="translate(84,306)"/>
<path d="M0 0 C0.58203125 1.84765625 0.58203125 1.84765625 1 4 C-0.3125 6.4375 -0.3125 6.4375 -2 9 C-2.69822617 10.65369357 -3.37498605 12.31727014 -4 14 C-4.99 14 -5.98 14 -7 14 C-5.53967505 8.68972746 -3.01679014 4.53669968 0 0 Z " fill="#58B3D5" transform="translate(90,146)"/>
<path d="M0 0 C0.33 0 0.66 0 1 0 C1.15143855 8.36277332 1.20216081 15.5091916 -3 23 C-3.66 23 -4.32 23 -5 23 C-4.80664062 22.34515625 -4.61328125 21.6903125 -4.4140625 21.015625 C-2.43098 14.06501902 -1.06022181 7.14714232 0 0 Z " fill="#73C1DC" transform="translate(205,68)"/>
<path d="M0 0 C5.82558915 0.63321621 11.54193068 1.81468106 17 4 C17.33 4.66 17.66 5.32 18 6 C14.7 5.67 11.4 5.34 8 5 C8 4.34 8 3.68 8 3 C6.02 3 4.04 3 2 3 C2 2.34 2 1.68 2 1 C1.34 0.67 0.68 0.34 0 0 Z " fill="#CE4B6D" transform="translate(302,62)"/>
<path d="M0 0 C0.66 0 1.32 0 2 0 C2.33 1.98 2.66 3.96 3 6 C3.66 6 4.32 6 5 6 C5 10.62 5 15.24 5 20 C4.67 20 4.34 20 4 20 C3.87882813 19.2265625 3.75765625 18.453125 3.6328125 17.65625 C2.67147688 11.68117941 1.57340459 5.84407421 0 0 Z " fill="#F2B673" transform="translate(134,339)"/>
<path d="M0 0 C3.7952131 1.49097658 5.61042731 3.75700849 8 7 C6.02 8.32 4.04 9.64 2 11 C2.66 9.02 3.32 7.04 4 5 C3.01 5 2.02 5 1 5 C0.67 3.35 0.34 1.7 0 0 Z " fill="#41A9D6" transform="translate(175,17)"/>
<path d="M0 0 C4.6875 0.78125 4.6875 0.78125 9.375 1.5625 C10.674375 1.7790625 10.674375 1.7790625 12 2 C12 2.66 12 3.32 12 4 C13.32 4.33 14.64 4.66 16 5 C12.3702749 6.32527172 10.37711779 5.66675274 6.875 4.1875 C6.00617187 3.83042969 5.13734375 3.47335937 4.2421875 3.10546875 C2 2 2 2 0 0 Z " fill="#EDA75C" transform="translate(39,417)"/>
<path d="M0 0 C4.95 0 9.9 0 15 0 C15 0.33 15 0.66 15 1 C13.43840941 1.48212214 11.87568072 1.96055873 10.3125 2.4375 C9.44238281 2.70433594 8.57226562 2.97117187 7.67578125 3.24609375 C5.12974079 3.96344529 2.5996577 4.517541 0 5 C0.66 4.67 1.32 4.34 2 4 C2 3.34 2 2.68 2 2 C1.34 2 0.68 2 0 2 C0 1.34 0 0.68 0 0 Z " fill="#B8CB57" transform="translate(340,364)"/>
<path d="M0 0 C-0.5625 2.375 -0.5625 2.375 -2 5 C-5.5 6.25 -5.5 6.25 -9 7 C-9.99 7.495 -9.99 7.495 -11 8 C-10.34 6.68 -9.68 5.36 -9 4 C-8.34 4 -7.68 4 -7 4 C-7 3.34 -7 2.68 -7 2 C-4 0 -4 0 0 0 Z " fill="#47AAD4" transform="translate(101,16)"/>
<path d="M0 0 C0.33 0.66 0.66 1.32 1 2 C1.66 2 2.32 2 3 2 C4.4606285 4.64738916 5 5.89448334 5 9 C5.66 9 6.32 9 7 9 C7.33 10.65 7.66 12.3 8 14 C4.72952316 10.90630569 1.98268225 8.0697162 0 4 C0 2.68 0 1.36 0 0 Z " fill="#EBAA62" transform="translate(16,391)"/>
<path d="M0 0 C2 1 2 1 2.8515625 3.50390625 C3.10679688 4.51324219 3.36203125 5.52257812 3.625 6.5625 C3.88539062 7.57441406 4.14578125 8.58632813 4.4140625 9.62890625 C4.60742188 10.41136719 4.80078125 11.19382812 5 12 C-0.80205656 6.35475578 -0.80205656 6.35475578 -3 3 C-3 2.34 -3 1.68 -3 1 C-2.01 0.67 -1.02 0.34 0 0 Z " fill="#EEAA5C" transform="translate(123,315)"/>
<path d="M0 0 C0.66 0 1.32 0 2 0 C1.58411954 6.19518473 0.39748106 11.26689311 -2 17 C-2.33 17 -2.66 17 -3 17 C-3.40214229 10.83381819 -1.96818336 5.82254243 0 0 Z " fill="#B5C85C" transform="translate(439,289)"/>
<path d="M0 0 C1.65 0 3.3 0 5 0 C5.50744423 1.89385437 6.00564574 3.79018666 6.5 5.6875 C6.7784375 6.74324219 7.056875 7.79898438 7.34375 8.88671875 C7.9391715 11.71142672 8.12786492 14.12836708 8 17 C7.34 17 6.68 17 6 17 C5.90912109 16.04287109 5.90912109 16.04287109 5.81640625 15.06640625 C5.73261719 14.24011719 5.64882813 13.41382813 5.5625 12.5625 C5.48128906 11.73878906 5.40007812 10.91507813 5.31640625 10.06640625 C5.21069185 8.01337975 5.21069185 8.01337975 4 7 C3.95919217 5.00041636 3.95745644 2.99954746 4 1 C2.68 0.67 1.36 0.34 0 0 Z " fill="#CC4C6D" transform="translate(435,200)"/>
<path d="M0 0 C0.99 0.495 0.99 0.495 2 1 C2 1.66 2 2.32 2 3 C2.66 3 3.32 3 4 3 C5.54296875 5.1171875 5.54296875 5.1171875 7.1875 7.875 C7.73792969 8.77992188 8.28835938 9.68484375 8.85546875 10.6171875 C9.23316406 11.40351563 9.61085938 12.18984375 10 13 C9.67 13.66 9.34 14.32 9 15 C7 13.1875 7 13.1875 5 11 C5 10.01 5 9.02 5 8 C4.34 8 3.68 8 3 8 C3 6.68 3 5.36 3 4 C2.34 4 1.68 4 1 4 C0.67 2.68 0.34 1.36 0 0 Z " fill="#B6CA60" transform="translate(417,393)"/>
<path d="M0 0 C1.216875 0.28875 2.43375 0.5775 3.6875 0.875 C9.74164275 2.22896164 15.86368138 3.10847921 22 4 C22 4.33 22 4.66 22 5 C16.06 4.67 10.12 4.34 4 4 C4 3.34 4 2.68 4 2 C2.68 1.34 1.36 0.68 0 0 Z " fill="#D96C8A" transform="translate(413,195)"/>
<path d="M0 0 C7.625 0.875 7.625 0.875 11 2 C11 2.66 11 3.32 11 4 C13.64 4.33 16.28 4.66 19 5 C15.07344794 6.51839575 12.28178154 5.43537717 8.375 4.1875 C7.22773438 3.83042969 6.08046875 3.47335938 4.8984375 3.10546875 C2 2 2 2 0 0 Z " fill="#D66886" transform="translate(411,183)"/>
<path d="M0 0 C2.86724686 0.57344937 3.8614515 0.8614515 6 3 C6.99 3.33 7.98 3.66 9 4 C9.33 4.99 9.66 5.98 10 7 C9.67 7.66 9.34 8.32 9 9 C8.34 9 7.68 9 7 9 C7 8.34 7 7.68 7 7 C6.34 7 5.68 7 5 7 C5 6.34 5 5.68 5 5 C4.34 5 3.68 5 3 5 C3 4.34 3 3.68 3 3 C2.34 3 1.68 3 1 3 C0.67 2.01 0.34 1.02 0 0 Z " fill="#B2C854" transform="translate(325,470)"/>
<path d="M0 0 C0.33 0 0.66 0 1 0 C1.19425873 2.79134852 1.38069517 5.58283687 1.5625 8.375 C1.61857422 9.1690625 1.67464844 9.963125 1.73242188 10.78125 C2.11328125 16.7734375 2.11328125 16.7734375 1 19 C0.34 19 -0.32 19 -1 19 C-0.67 12.73 -0.34 6.46 0 0 Z " fill="#EEA055" transform="translate(139,359)"/>
<path d="M0 0 C0 0.66 0 1.32 0 2 C-5.72040011 2.8320582 -11.22240116 3.12036664 -17 3 C-17 2.67 -17 2.34 -17 2 C-11.16200408 0.30167391 -6.06892629 -0.25287193 0 0 Z " fill="#C83F60" transform="translate(451,187)"/>
<path d="M0 0 C1.3303125 0.10054688 1.3303125 0.10054688 2.6875 0.203125 C5 0.75 5 0.75 7 3.75 C5.22844346 3.63570603 3.45773771 3.50816963 1.6875 3.375 C0.70136719 3.30539063 -0.28476563 3.23578125 -1.30078125 3.1640625 C-4 2.75 -4 2.75 -7 0.75 C-4.43148558 -0.53425721 -2.84754463 -0.24833238 0 0 Z " fill="#43A4D1" transform="translate(123,118.25)"/>
<path d="M0 0 C2.74277578 3.19990508 4.6302836 6.00499382 6 10 C5.34 10.66 4.68 11.32 4 12 C4 11.01 4 10.02 4 9 C3.01 9 2.02 9 1 9 C0.67 6.03 0.34 3.06 0 0 Z " fill="#46ACD6" transform="translate(183,24)"/>
<path d="M0 0 C1.93719378 -0.05406122 3.87481921 -0.09282025 5.8125 -0.125 C6.89144531 -0.14820313 7.97039062 -0.17140625 9.08203125 -0.1953125 C12 0 12 0 15 2 C11.46905698 3.20220203 8.87101018 2.79532349 5.25 2.0625 C4.26515625 1.86785156 3.2803125 1.67320312 2.265625 1.47265625 C1.51796875 1.31667969 0.7703125 1.16070312 0 1 C0 0.67 0 0.34 0 0 Z " fill="#EBA45A" transform="translate(207,433)"/>
<path d="M0 0 C3.59391114 1.33488128 6.75490696 2.96022723 10 5 C10 4.34 10 3.68 10 3 C10.66 3 11.32 3 12 3 C11.34 4.32 10.68 5.64 10 7 C7.29068581 6.84518205 5.53415961 6.51827919 3.5546875 4.59765625 C2.32320358 3.10228292 1.1570163 1.5537076 0 0 Z " fill="#B0C54F" transform="translate(393,362)"/>
<path d="M0 0 C2.31 0 4.62 0 7 0 C4 2 4 2 2 2 C1.67 5.63 1.34 9.26 1 13 C0.67 13 0.34 13 0 13 C0 8.71 0 4.42 0 0 Z " fill="#3E9FCB" transform="translate(206,61)"/>
<path d="M0 0 C1.60031344 3.20062687 0.03173691 5.72271806 -1 9 C-1.33 8.34 -1.66 7.68 -2 7 C-2.99 7 -3.98 7 -5 7 C-3.75023244 3.34683329 -3.32901247 2.21934164 0 0 Z " fill="#B3CA4A" transform="translate(429,447)"/>
<path d="M0 0 C1.65 1.65 3.3 3.3 5 5 C4.67 5.66 4.34 6.32 4 7 C3.01 7 2.02 7 1 7 C1 6.34 1 5.68 1 5 C-0.32 4.67 -1.64 4.34 -3 4 C-2.34 3.67 -1.68 3.34 -1 3 C-0.67 2.01 -0.34 1.02 0 0 Z " fill="#D64769" transform="translate(380,168)"/>
<path d="M0 0 C2.3125 0.0625 2.3125 0.0625 5 1 C6.8125 4.5625 6.8125 4.5625 8 8 C7.01 8 6.02 8 5 8 C5 7.34 5 6.68 5 6 C4.34 6 3.68 6 3 6 C2.01 4.02 1.02 2.04 0 0 Z " fill="#D14F6F" transform="translate(387,161)"/>
<path d="M0 0 C2.46301423 2.46301423 2.76766521 4.27360036 3.625 7.625 C3.88539063 8.62789062 4.14578125 9.63078125 4.4140625 10.6640625 C4.60742188 11.43492187 4.80078125 12.20578125 5 13 C3.68 12.67 2.36 12.34 1 12 C0.67 8.04 0.34 4.08 0 0 Z " fill="#CF4F6C" transform="translate(370,146)"/>
<path d="M0 0 C0.33 0.66 0.66 1.32 1 2 C1.99 2.33 2.98 2.66 4 3 C2.02 5.31 0.04 7.62 -2 10 C-2.33 8.68 -2.66 7.36 -3 6 C-2.01 6 -1.02 6 0 6 C-0.2784375 4.7934375 -0.2784375 4.7934375 -0.5625 3.5625 C-0.706875 2.716875 -0.85125 1.87125 -1 1 C-0.67 0.67 -0.34 0.34 0 0 Z " fill="#49AED3" transform="translate(179,98)"/>
<path d="M0 0 C0.33 0 0.66 0 1 0 C0.67 2.64 0.34 5.28 0 8 C-0.639375 8.103125 -1.27875 8.20625 -1.9375 8.3125 C-2.9584375 8.6528125 -2.9584375 8.6528125 -4 9 C-4.33 9.99 -4.66 10.98 -5 12 C-5.33 11.34 -5.66 10.68 -6 10 C-5.67 9.34 -5.34 8.68 -5 8 C-4.34 8 -3.68 8 -3 8 C-2.87625 7.4225 -2.7525 6.845 -2.625 6.25 C-1.99351176 3.97664233 -1.11141809 2.0746471 0 0 Z " fill="#4EAED2" transform="translate(199,92)"/>
<path d="M0 0 C1.5 1.375 1.5 1.375 3 3 C3 3.66 3 4.32 3 5 C3.66 5 4.32 5 5 5 C5.66 6.98 6.32 8.96 7 11 C5.109375 10.74609375 5.109375 10.74609375 3 10 C1.953125 8.22265625 1.953125 8.22265625 1.25 6.0625 C1.00765625 5.35222656 0.7653125 4.64195312 0.515625 3.91015625 C0 2 0 2 0 0 Z " fill="#EFAA61" transform="translate(116,327)"/>
<path d="M0 0 C6.6 0 13.2 0 20 0 C19.01 1.485 19.01 1.485 18 3 C17.34 3 16.68 3 16 3 C16 2.34 16 1.68 16 1 C10.72 1 5.44 1 0 1 C0 0.67 0 0.34 0 0 Z " fill="#9FB825" transform="translate(416,261)"/>
<path d="M0 0 C0.99 0.33 1.98 0.66 3 1 C3 1.66 3 2.32 3 3 C3.66 3 4.32 3 5 3 C5 3.66 5 4.32 5 5 C5.66 5 6.32 5 7 5 C7 5.66 7 6.32 7 7 C7.66 7 8.32 7 9 7 C8.67 7.66 8.34 8.32 8 9 C6.68 8.34 5.36 7.68 4 7 C4 6.34 4 5.68 4 5 C3.01 4.67 2.02 4.34 1 4 C0.3125 1.9375 0.3125 1.9375 0 0 Z " fill="#EEB06D" transform="translate(107,318)"/>
<path d="M0 0 C2.31 0 4.62 0 7 0 C5.625 2 5.625 2 4 4 C3.34 4 2.68 4 2 4 C1.67 4.66 1.34 5.32 1 6 C0.67 4.02 0.34 2.04 0 0 Z " fill="#D43359" transform="translate(474,172)"/>
<path d="M0 0 C0.66 0.99 1.32 1.98 2 3 C1.01 3 0.02 3 -1 3 C-1 3.99 -1 4.98 -1 6 C-1.639375 6.12375 -2.27875 6.2475 -2.9375 6.375 C-3.9584375 6.684375 -3.9584375 6.684375 -5 7 C-5.33 7.66 -5.66 8.32 -6 9 C-6.66 9 -7.32 9 -8 9 C-7.375 6.625 -7.375 6.625 -6 4 C-2.875 2.6875 -2.875 2.6875 0 2 C0 1.34 0 0.68 0 0 Z " fill="#31A2D5" transform="translate(101,134)"/>
<path d="M0 0 C2.31 1.98 4.62 3.96 7 6 C6.67 6.66 6.34 7.32 6 8 C4.02 7.34 2.04 6.68 0 6 C0 4.02 0 2.04 0 0 Z " fill="#D8577A" transform="translate(480,86)"/>
<path d="M0 0 C1.98 0.99 1.98 0.99 4 2 C4 2.66 4 3.32 4 4 C4.9590625 4.433125 4.9590625 4.433125 5.9375 4.875 C8 6 8 6 9 8 C5.41209425 7.70100785 4.21833224 7.23013399 1.6875 4.5625 C0 2 0 2 0 0 Z " fill="#C0CF68" transform="translate(407,383)"/>
<path d="M0 0 C4.43090471 1.20842856 6.98112756 2.51668565 10 6 C8.35 6 6.7 6 5 6 C5 5.01 5 4.02 5 3 C3.35 3 1.7 3 0 3 C0 2.01 0 1.02 0 0 Z " fill="#B6CA5B" transform="translate(396,377)"/>
<path d="M0 0 C0.33 0.99 0.66 1.98 1 3 C0.34 3.66 -0.32 4.32 -1 5 C-3.0625 4.8125 -3.0625 4.8125 -5 4 C-5.33 3.01 -5.66 2.02 -6 1 C-4.02 0.67 -2.04 0.34 0 0 Z " fill="#1094CD" transform="translate(164,128)"/>
<path d="M0 0 C1.32 0.99 2.64 1.98 4 3 C3.67 3.66 3.34 4.32 3 5 C2.34 4.67 1.68 4.34 1 4 C1.33 5.65 1.66 7.3 2 9 C1.01 8.67 0.02 8.34 -1 8 C-0.67 5.36 -0.34 2.72 0 0 Z " fill="#9FBA22" transform="translate(423,405)"/>
<path d="M0 0 C0.66 0 1.32 0 2 0 C1.54965877 1.62723299 1.08944646 3.25173664 0.625 4.875 C0.36976563 5.77992188 0.11453125 6.68484375 -0.1484375 7.6171875 C-1 10 -1 10 -3 12 C-2.67 9.03 -2.34 6.06 -2 3 C-1.34 3 -0.68 3 0 3 C0 2.01 0 1.02 0 0 Z " fill="#B8CC62" transform="translate(307,400)"/>
<path d="M0 0 C2.31 0 4.62 0 7 0 C7 0.99 7 1.98 7 3 C3.86650268 4.04449911 3.01031744 3.93423645 0 3 C0 2.01 0 1.02 0 0 Z " fill="#CA103C" transform="translate(316,68)"/>
<path d="M0 0 C3.0831351 1.19899698 6.06279492 2.47700477 9 4 C9 4.33 9 4.66 9 5 C7.35 5 5.7 5 4 5 C4 4.34 4 3.68 4 3 C1.03 2.505 1.03 2.505 -2 2 C-1.34 1.34 -0.68 0.68 0 0 Z " fill="#D14E6E" transform="translate(340,76)"/>
<path d="M0 0 C2.31 0 4.62 0 7 0 C5.35 1.65 3.7 3.3 2 5 C1.34 3.35 0.68 1.7 0 0 Z " fill="#F0A14E" transform="translate(110,402)"/>
<path d="M0 0 C0.33 0.66 0.66 1.32 1 2 C-0.25483449 5.42227589 -2.3651481 7.54080489 -5 10 C-5 6 -5 6 -3 3 C-2.34 3 -1.68 3 -1 3 C-0.67 2.01 -0.34 1.02 0 0 Z " fill="#D7647E" transform="translate(395,87)"/>
<path d="M0 0 C0.66 0 1.32 0 2 0 C1.67 1.32 1.34 2.64 1 4 C0.34 4 -0.32 4 -1 4 C-1.33 5.32 -1.66 6.64 -2 8 C-2.33 8 -2.66 8 -3 8 C-3 6.02 -3 4.04 -3 2 C-2.01 2 -1.02 2 0 2 C0 1.34 0 0.68 0 0 Z " fill="#EBA254" transform="translate(120,393)"/>
<path d="M0 0 C0.33 0 0.66 0 1 0 C1.33 1.98 1.66 3.96 2 6 C2.66 6 3.32 6 4 6 C3.67 7.65 3.34 9.3 3 11 C1.5 10 1.5 10 0 8 C-0.27345479 5.28153765 -0.13491285 2.74322801 0 0 Z " fill="#ED8820" transform="translate(10,369)"/>
<path d="M0 0 C2.27795022 2.27795022 3.05219877 3.93787293 4 7 C3.625 9.3125 3.625 9.3125 3 11 C3 10.01 3 9.02 3 8 C2.01 7.67 1.02 7.34 0 7 C0 4.69 0 2.38 0 0 Z " fill="#EEAD6D" transform="translate(123,338)"/>
<path d="M0 0 C1.32 0.33 2.64 0.66 4 1 C4 1.66 4 2.32 4 3 C4.639375 3.12375 5.27875 3.2475 5.9375 3.375 C6.618125 3.58125 7.29875 3.7875 8 4 C8.33 4.66 8.66 5.32 9 6 C2.35384615 4.52307692 2.35384615 4.52307692 0.5625 1.875 C0.376875 1.25625 0.19125 0.6375 0 0 Z " fill="#F0B578" transform="translate(98,312)"/>
<path d="M0 0 C-0.66 1.65 -1.32 3.3 -2 5 C-2.66 4.67 -3.32 4.34 -4 4 C-3.67 3.34 -3.34 2.68 -3 2 C-4.98 2.33 -6.96 2.66 -9 3 C-6.31795079 0.31795079 -3.73391546 0 0 0 Z " fill="#54B2D8" transform="translate(158,129)"/>
<path d="M0 0 C1.32 0 2.64 0 4 0 C5.32 2.31 6.64 4.62 8 7 C4.2047869 5.50902342 2.38957269 3.24299151 0 0 Z " fill="#F2B976" transform="translate(24,405)"/>
<path d="M0 0 C0.99 0.33 1.98 0.66 3 1 C2.19152271 2.16945792 1.37810888 3.33550461 0.5625 4.5 C0.11003906 5.1496875 -0.34242188 5.799375 -0.80859375 6.46875 C-1.20175781 6.9740625 -1.59492188 7.479375 -2 8 C-2.33 8 -2.66 8 -3 8 C-3 6.35 -3 4.7 -3 3 C-2.01 3 -1.02 3 0 3 C0 2.01 0 1.02 0 0 Z " fill="#C0D06B" transform="translate(313,390)"/>
<path d="M0 0 C3.37462715 0.54723683 5.08235 1.0549 8 3 C7.34 3.66 6.68 4.32 6 5 C6 4.34 6 3.68 6 3 C4.02 3 2.04 3 0 3 C0 2.01 0 1.02 0 0 Z " fill="#B8CA5E" transform="translate(388,374)"/>
<path d="M0 0 C1.32 0.33 2.64 0.66 4 1 C1.36 2.65 -1.28 4.3 -4 6 C-2 2 -2 2 0 0 Z " fill="#1392C7" transform="translate(93,21)"/>
<path d="M0 0 C0.33 1.32 0.66 2.64 1 4 C1.66 4 2.32 4 3 4 C3 5.98 3 7.96 3 10 C2.34 9.67 1.68 9.34 1 9 C0.5859375 6.93359375 0.5859375 6.93359375 0.375 4.4375 C0.30023438 3.61121094 0.22546875 2.78492188 0.1484375 1.93359375 C0.09945313 1.29550781 0.05046875 0.65742188 0 0 Z " fill="#AFC54F" transform="translate(314,446)"/>
<path d="M0 0 C1.98 0 3.96 0 6 0 C6 0.66 6 1.32 6 2 C3.36 2.66 0.72 3.32 -2 4 C-1.34 2.68 -0.68 1.36 0 0 Z " fill="#71BED5" transform="translate(104,126)"/>
<path d="M0 0 C-0.66 0 -1.32 0 -2 0 C-2.33 0.99 -2.66 1.98 -3 3 C-4.98 3 -6.96 3 -9 3 C-8 1 -8 1 -5.625 -0.1875 C-3 -1 -3 -1 0 0 Z " fill="#6FBBDD" transform="translate(118,6)"/>
</svg>
